<svg xmlns="http://www.w3.org/2000/svg" xmlns:xlink="http://www.w3.org/1999/xlink" width="800" zoomAndPan="magnify" viewBox="0 0 600 225" height="300" preserveAspectRatio="xMidYMid meet" version="1.0"><defs><clipPath id="90bcc434b2"><path d="M 0 0 L 600 0 L 600 221 L 0 221 Z M 0 0 " clip-rule="nonzero"/></clipPath><clipPath id="1e2ef4dc65"><path d="M 573.78125 0 C 586.890625 0 600 8.738281 600 21.847656 L 600 155.085938 C 600 168.195312 586.890625 181.304688 573.78125 181.304688 L 99.261719 181.304688 C 94.433594 181.304688 89.78125 183.101562 86.210938 186.347656 L 49.246094 219.953125 C 48.273438 220.839844 46.871094 221.066406 45.671875 220.535156 C 44.46875 220.003906 43.695312 218.8125 43.695312 217.5 L 43.695312 188.804688 C 43.695312 184.660156 40.339844 181.304688 36.195312 181.304688 L 26.21875 181.304688 C 13.109375 181.304688 0 168.195312 0 155.085938 L 0 21.847656 C 0 8.738281 13.109375 0 26.21875 0 Z M 573.78125 0 " clip-rule="nonzero"/></clipPath><clipPath id="7c037fb5f0"><path d="M 0 0 L 600 0 L 600 221 L 0 221 Z M 0 0 " clip-rule="nonzero"/></clipPath><clipPath id="d6d8d8f611"><path d="M 573.78125 0 C 586.890625 0 600 8.738281 600 21.847656 L 600 155.085938 C 600 168.195312 586.890625 181.304688 573.78125 181.304688 L 99.261719 181.304688 C 94.433594 181.304688 89.78125 183.101562 86.210938 186.347656 L 49.246094 219.953125 C 48.273438 220.839844 46.871094 221.066406 45.671875 220.535156 C 44.46875 220.003906 43.695312 218.8125 43.695312 217.5 L 43.695312 188.804688 C 43.695312 184.660156 40.339844 181.304688 36.195312 181.304688 L 26.21875 181.304688 C 13.109375 181.304688 0 168.195312 0 155.085938 L 0 21.847656 C 0 8.738281 13.109375 0 26.21875 0 Z M 573.78125 0 " clip-rule="nonzero"/></clipPath><clipPath id="33ab356e4d"><rect x="0" width="600" y="0" height="221"/></clipPath></defs><g clip-path="url(#90bcc434b2)"><g clip-path="url(#1e2ef4dc65)"><g transform="matrix(1, 0, 0, 1, 0, -0.000000000000008531)"><g clip-path="url(#33ab356e4d)"><g clip-path="url(#7c037fb5f0)"><g clip-path="url(#d6d8d8f611)"><rect x="-132" width="864" fill="#ffffff" height="324" y="-49.5" fill-opacity="1"/></g></g></g></g><path stroke-linecap="butt" transform="matrix(0.75, 0, 0, 0.75, 0, 0.00001)" fill="none" stroke-linejoin="miter" d="M 765.041699 -0.0000133333 C 782.520866 -0.0000133333 800.000033 11.651029 800.000033 29.130196 L 800.000033 206.781245 C 800.000033 224.260413 782.520866 241.73958 765.041699 241.73958 L 132.348964 241.73958 C 125.911464 241.73958 119.708338 244.135414 114.947921 248.463539 L 65.661461 293.270832 C 64.364586 294.453124 62.494794 294.755207 60.895836 294.046874 C 59.291669 293.338541 58.260419 291.749999 58.260419 289.999999 L 58.260419 251.73958 C 58.260419 246.213539 53.786461 241.73958 48.260419 241.73958 L 34.958335 241.73958 C 17.479167 241.73958 0 224.260413 0 206.781245 L 0 29.130196 C 0 11.651029 17.479167 -0.0000133333 34.958335 -0.0000133333 Z M 765.041699 -0.0000133333 " stroke="#d9d9d9" stroke-width="2" stroke-opacity="1" stroke-miterlimit="4"/></g></g></svg>